<mxfile host="Electron" agent="Mozilla/5.0 (Windows NT 10.0; Win64; x64) AppleWebKit/537.36 (KHTML, like Gecko) draw.io/26.2.15 Chrome/134.0.6998.205 Electron/35.2.1 Safari/537.36" version="26.2.15">
  <diagram id="C5RBs43oDa-KdzZeNtuy" name="Page-1">
    <mxGraphModel dx="3296" dy="1251" grid="1" gridSize="10" guides="1" tooltips="1" connect="1" arrows="1" fold="1" page="1" pageScale="1" pageWidth="827" pageHeight="1169" math="0" shadow="0">
      <root>
        <mxCell id="WIyWlLk6GJQsqaUBKTNV-0" />
        <mxCell id="WIyWlLk6GJQsqaUBKTNV-1" parent="WIyWlLk6GJQsqaUBKTNV-0" />
        <mxCell id="WIyWlLk6GJQsqaUBKTNV-2" value="" style="rounded=0;html=1;jettySize=auto;orthogonalLoop=1;fontSize=11;endArrow=block;endFill=0;endSize=8;strokeWidth=1;shadow=0;labelBackgroundColor=none;edgeStyle=orthogonalEdgeStyle;" parent="WIyWlLk6GJQsqaUBKTNV-1" source="WIyWlLk6GJQsqaUBKTNV-3" target="WIyWlLk6GJQsqaUBKTNV-6" edge="1">
          <mxGeometry relative="1" as="geometry" />
        </mxCell>
        <mxCell id="WIyWlLk6GJQsqaUBKTNV-3" value="Start" style="rounded=1;whiteSpace=wrap;html=1;fontSize=12;glass=0;strokeWidth=1;shadow=0;" parent="WIyWlLk6GJQsqaUBKTNV-1" vertex="1">
          <mxGeometry x="160" y="80" width="120" height="40" as="geometry" />
        </mxCell>
        <mxCell id="WIyWlLk6GJQsqaUBKTNV-5" value="No" style="edgeStyle=orthogonalEdgeStyle;rounded=0;html=1;jettySize=auto;orthogonalLoop=1;fontSize=11;endArrow=block;endFill=0;endSize=8;strokeWidth=1;shadow=0;labelBackgroundColor=none;" parent="WIyWlLk6GJQsqaUBKTNV-1" source="WIyWlLk6GJQsqaUBKTNV-6" target="WIyWlLk6GJQsqaUBKTNV-7" edge="1">
          <mxGeometry y="10" relative="1" as="geometry">
            <mxPoint as="offset" />
          </mxGeometry>
        </mxCell>
        <mxCell id="srPSa60DD6o7SeIWjLmN-5" style="edgeStyle=orthogonalEdgeStyle;rounded=0;orthogonalLoop=1;jettySize=auto;html=1;" edge="1" parent="WIyWlLk6GJQsqaUBKTNV-1" source="WIyWlLk6GJQsqaUBKTNV-6" target="srPSa60DD6o7SeIWjLmN-4">
          <mxGeometry relative="1" as="geometry" />
        </mxCell>
        <mxCell id="srPSa60DD6o7SeIWjLmN-6" value="yes" style="edgeLabel;html=1;align=center;verticalAlign=middle;resizable=0;points=[];" vertex="1" connectable="0" parent="srPSa60DD6o7SeIWjLmN-5">
          <mxGeometry x="-0.1314" y="-1" relative="1" as="geometry">
            <mxPoint as="offset" />
          </mxGeometry>
        </mxCell>
        <mxCell id="WIyWlLk6GJQsqaUBKTNV-6" value="Sudah punya akun?" style="rhombus;whiteSpace=wrap;html=1;shadow=0;fontFamily=Helvetica;fontSize=12;align=center;strokeWidth=1;spacing=6;spacingTop=-4;" parent="WIyWlLk6GJQsqaUBKTNV-1" vertex="1">
          <mxGeometry x="170" y="170" width="100" height="80" as="geometry" />
        </mxCell>
        <mxCell id="WIyWlLk6GJQsqaUBKTNV-7" value="Registrasi" style="rounded=1;whiteSpace=wrap;html=1;fontSize=12;glass=0;strokeWidth=1;shadow=0;" parent="WIyWlLk6GJQsqaUBKTNV-1" vertex="1">
          <mxGeometry x="320" y="190" width="120" height="40" as="geometry" />
        </mxCell>
        <mxCell id="srPSa60DD6o7SeIWjLmN-1" value="Welcome to Dashboard" style="rounded=1;whiteSpace=wrap;html=1;fontSize=12;glass=0;strokeWidth=1;shadow=0;" vertex="1" parent="WIyWlLk6GJQsqaUBKTNV-1">
          <mxGeometry x="390" y="335" width="120" height="40" as="geometry" />
        </mxCell>
        <mxCell id="srPSa60DD6o7SeIWjLmN-8" style="edgeStyle=orthogonalEdgeStyle;rounded=0;orthogonalLoop=1;jettySize=auto;html=1;" edge="1" parent="WIyWlLk6GJQsqaUBKTNV-1" source="srPSa60DD6o7SeIWjLmN-4" target="srPSa60DD6o7SeIWjLmN-1">
          <mxGeometry relative="1" as="geometry" />
        </mxCell>
        <mxCell id="srPSa60DD6o7SeIWjLmN-4" value="Login" style="rounded=0;whiteSpace=wrap;html=1;" vertex="1" parent="WIyWlLk6GJQsqaUBKTNV-1">
          <mxGeometry x="170" y="330" width="100" height="50" as="geometry" />
        </mxCell>
        <mxCell id="srPSa60DD6o7SeIWjLmN-7" style="edgeStyle=elbowEdgeStyle;rounded=0;orthogonalLoop=1;jettySize=auto;html=1;entryX=0.75;entryY=0;entryDx=0;entryDy=0;elbow=vertical;" edge="1" parent="WIyWlLk6GJQsqaUBKTNV-1" source="WIyWlLk6GJQsqaUBKTNV-7" target="srPSa60DD6o7SeIWjLmN-4">
          <mxGeometry relative="1" as="geometry" />
        </mxCell>
        <mxCell id="srPSa60DD6o7SeIWjLmN-16" style="edgeStyle=elbowEdgeStyle;rounded=0;orthogonalLoop=1;jettySize=auto;html=1;entryX=0;entryY=0.5;entryDx=0;entryDy=0;elbow=vertical;" edge="1" parent="WIyWlLk6GJQsqaUBKTNV-1" source="srPSa60DD6o7SeIWjLmN-9" target="srPSa60DD6o7SeIWjLmN-11">
          <mxGeometry relative="1" as="geometry" />
        </mxCell>
        <mxCell id="srPSa60DD6o7SeIWjLmN-17" style="edgeStyle=orthogonalEdgeStyle;rounded=0;orthogonalLoop=1;jettySize=auto;html=1;entryX=0;entryY=0.75;entryDx=0;entryDy=0;" edge="1" parent="WIyWlLk6GJQsqaUBKTNV-1" source="srPSa60DD6o7SeIWjLmN-9" target="srPSa60DD6o7SeIWjLmN-12">
          <mxGeometry relative="1" as="geometry" />
        </mxCell>
        <mxCell id="srPSa60DD6o7SeIWjLmN-18" style="edgeStyle=orthogonalEdgeStyle;rounded=0;orthogonalLoop=1;jettySize=auto;html=1;entryX=0;entryY=0.75;entryDx=0;entryDy=0;" edge="1" parent="WIyWlLk6GJQsqaUBKTNV-1" source="srPSa60DD6o7SeIWjLmN-9" target="srPSa60DD6o7SeIWjLmN-13">
          <mxGeometry relative="1" as="geometry" />
        </mxCell>
        <mxCell id="srPSa60DD6o7SeIWjLmN-19" style="edgeStyle=orthogonalEdgeStyle;rounded=0;orthogonalLoop=1;jettySize=auto;html=1;entryX=0;entryY=0.75;entryDx=0;entryDy=0;" edge="1" parent="WIyWlLk6GJQsqaUBKTNV-1" source="srPSa60DD6o7SeIWjLmN-9" target="srPSa60DD6o7SeIWjLmN-14">
          <mxGeometry relative="1" as="geometry" />
        </mxCell>
        <mxCell id="srPSa60DD6o7SeIWjLmN-20" style="edgeStyle=elbowEdgeStyle;rounded=0;orthogonalLoop=1;jettySize=auto;html=1;" edge="1" parent="WIyWlLk6GJQsqaUBKTNV-1" source="srPSa60DD6o7SeIWjLmN-9" target="srPSa60DD6o7SeIWjLmN-15">
          <mxGeometry relative="1" as="geometry" />
        </mxCell>
        <mxCell id="srPSa60DD6o7SeIWjLmN-23" style="edgeStyle=elbowEdgeStyle;rounded=0;orthogonalLoop=1;jettySize=auto;html=1;" edge="1" parent="WIyWlLk6GJQsqaUBKTNV-1" source="srPSa60DD6o7SeIWjLmN-9" target="srPSa60DD6o7SeIWjLmN-21">
          <mxGeometry relative="1" as="geometry" />
        </mxCell>
        <mxCell id="srPSa60DD6o7SeIWjLmN-24" style="edgeStyle=elbowEdgeStyle;rounded=0;orthogonalLoop=1;jettySize=auto;html=1;" edge="1" parent="WIyWlLk6GJQsqaUBKTNV-1" source="srPSa60DD6o7SeIWjLmN-9" target="srPSa60DD6o7SeIWjLmN-22">
          <mxGeometry relative="1" as="geometry" />
        </mxCell>
        <mxCell id="srPSa60DD6o7SeIWjLmN-157" style="edgeStyle=orthogonalEdgeStyle;rounded=0;orthogonalLoop=1;jettySize=auto;html=1;entryX=0;entryY=0.5;entryDx=0;entryDy=0;" edge="1" parent="WIyWlLk6GJQsqaUBKTNV-1" source="srPSa60DD6o7SeIWjLmN-9" target="srPSa60DD6o7SeIWjLmN-156">
          <mxGeometry relative="1" as="geometry" />
        </mxCell>
        <mxCell id="srPSa60DD6o7SeIWjLmN-9" value="Dasborad Option" style="rounded=0;whiteSpace=wrap;html=1;" vertex="1" parent="WIyWlLk6GJQsqaUBKTNV-1">
          <mxGeometry x="280" y="450" width="100" height="50" as="geometry" />
        </mxCell>
        <mxCell id="srPSa60DD6o7SeIWjLmN-10" style="edgeStyle=elbowEdgeStyle;rounded=0;orthogonalLoop=1;jettySize=auto;html=1;entryX=0.621;entryY=0.046;entryDx=0;entryDy=0;entryPerimeter=0;elbow=vertical;" edge="1" parent="WIyWlLk6GJQsqaUBKTNV-1" source="srPSa60DD6o7SeIWjLmN-1" target="srPSa60DD6o7SeIWjLmN-9">
          <mxGeometry relative="1" as="geometry" />
        </mxCell>
        <mxCell id="srPSa60DD6o7SeIWjLmN-11" value="1.Tambah Data Investasi" style="rounded=1;whiteSpace=wrap;html=1;" vertex="1" parent="WIyWlLk6GJQsqaUBKTNV-1">
          <mxGeometry x="450" y="430" width="100" height="45" as="geometry" />
        </mxCell>
        <mxCell id="srPSa60DD6o7SeIWjLmN-35" style="edgeStyle=orthogonalEdgeStyle;rounded=0;orthogonalLoop=1;jettySize=auto;html=1;" edge="1" parent="WIyWlLk6GJQsqaUBKTNV-1" source="srPSa60DD6o7SeIWjLmN-12" target="srPSa60DD6o7SeIWjLmN-34">
          <mxGeometry relative="1" as="geometry" />
        </mxCell>
        <mxCell id="srPSa60DD6o7SeIWjLmN-12" value="2.Ubah Data Investasi" style="rounded=1;whiteSpace=wrap;html=1;" vertex="1" parent="WIyWlLk6GJQsqaUBKTNV-1">
          <mxGeometry x="450" y="490" width="100" height="45" as="geometry" />
        </mxCell>
        <mxCell id="srPSa60DD6o7SeIWjLmN-74" style="edgeStyle=orthogonalEdgeStyle;rounded=0;orthogonalLoop=1;jettySize=auto;html=1;" edge="1" parent="WIyWlLk6GJQsqaUBKTNV-1" source="srPSa60DD6o7SeIWjLmN-13" target="srPSa60DD6o7SeIWjLmN-73">
          <mxGeometry relative="1" as="geometry" />
        </mxCell>
        <mxCell id="srPSa60DD6o7SeIWjLmN-13" value="3.Hapus Data Investasi" style="rounded=1;whiteSpace=wrap;html=1;" vertex="1" parent="WIyWlLk6GJQsqaUBKTNV-1">
          <mxGeometry x="450" y="550" width="100" height="45" as="geometry" />
        </mxCell>
        <mxCell id="srPSa60DD6o7SeIWjLmN-94" style="edgeStyle=orthogonalEdgeStyle;rounded=0;orthogonalLoop=1;jettySize=auto;html=1;entryX=0;entryY=0.5;entryDx=0;entryDy=0;" edge="1" parent="WIyWlLk6GJQsqaUBKTNV-1" source="srPSa60DD6o7SeIWjLmN-14" target="srPSa60DD6o7SeIWjLmN-93">
          <mxGeometry relative="1" as="geometry" />
        </mxCell>
        <mxCell id="srPSa60DD6o7SeIWjLmN-14" value="4.Cari Data Investasi" style="rounded=1;whiteSpace=wrap;html=1;" vertex="1" parent="WIyWlLk6GJQsqaUBKTNV-1">
          <mxGeometry x="450" y="610" width="100" height="45" as="geometry" />
        </mxCell>
        <mxCell id="srPSa60DD6o7SeIWjLmN-118" style="edgeStyle=elbowEdgeStyle;rounded=0;orthogonalLoop=1;jettySize=auto;html=1;" edge="1" parent="WIyWlLk6GJQsqaUBKTNV-1" source="srPSa60DD6o7SeIWjLmN-15" target="srPSa60DD6o7SeIWjLmN-117">
          <mxGeometry relative="1" as="geometry">
            <mxPoint x="630" y="850" as="targetPoint" />
          </mxGeometry>
        </mxCell>
        <mxCell id="srPSa60DD6o7SeIWjLmN-15" value="5.Urutkan Data Investasi" style="rounded=1;whiteSpace=wrap;html=1;" vertex="1" parent="WIyWlLk6GJQsqaUBKTNV-1">
          <mxGeometry x="450" y="670" width="100" height="45" as="geometry" />
        </mxCell>
        <mxCell id="srPSa60DD6o7SeIWjLmN-153" style="edgeStyle=orthogonalEdgeStyle;rounded=0;orthogonalLoop=1;jettySize=auto;html=1;" edge="1" parent="WIyWlLk6GJQsqaUBKTNV-1" source="srPSa60DD6o7SeIWjLmN-21" target="srPSa60DD6o7SeIWjLmN-150">
          <mxGeometry relative="1" as="geometry" />
        </mxCell>
        <mxCell id="srPSa60DD6o7SeIWjLmN-21" value="6.Tampilkan Laporan Data Investasi" style="rounded=1;whiteSpace=wrap;html=1;" vertex="1" parent="WIyWlLk6GJQsqaUBKTNV-1">
          <mxGeometry x="450" y="730" width="100" height="45" as="geometry" />
        </mxCell>
        <mxCell id="srPSa60DD6o7SeIWjLmN-154" style="edgeStyle=orthogonalEdgeStyle;rounded=0;orthogonalLoop=1;jettySize=auto;html=1;" edge="1" parent="WIyWlLk6GJQsqaUBKTNV-1" source="srPSa60DD6o7SeIWjLmN-22" target="srPSa60DD6o7SeIWjLmN-155">
          <mxGeometry relative="1" as="geometry">
            <mxPoint x="340" y="950" as="targetPoint" />
          </mxGeometry>
        </mxCell>
        <mxCell id="srPSa60DD6o7SeIWjLmN-22" value="7.Keluar Dashborad/ logout" style="rounded=1;whiteSpace=wrap;html=1;" vertex="1" parent="WIyWlLk6GJQsqaUBKTNV-1">
          <mxGeometry x="450" y="802.5" width="100" height="45" as="geometry" />
        </mxCell>
        <mxCell id="srPSa60DD6o7SeIWjLmN-32" value="" style="group" vertex="1" connectable="0" parent="WIyWlLk6GJQsqaUBKTNV-1">
          <mxGeometry x="490" y="40" width="280" height="170" as="geometry" />
        </mxCell>
        <mxCell id="srPSa60DD6o7SeIWjLmN-29" value="&lt;div style=&quot;text-align: justify;&quot;&gt;&lt;ul&gt;&lt;li&gt;Nama Aset&lt;/li&gt;&lt;li&gt;Jenis Aset (Saham,Obligasi,Reksadan,dll)&lt;/li&gt;&lt;li&gt;Jumlah Dana Investasi&lt;/li&gt;&lt;li&gt;Nilai Awal Aset&lt;/li&gt;&lt;li&gt;Nilai Sekarang Aset&lt;/li&gt;&lt;/ul&gt;&lt;/div&gt;" style="whiteSpace=wrap;html=1;aspect=fixed;align=left;" vertex="1" parent="srPSa60DD6o7SeIWjLmN-32">
          <mxGeometry y="30" width="280" height="140" as="geometry" />
        </mxCell>
        <mxCell id="srPSa60DD6o7SeIWjLmN-31" value="Input" style="text;html=1;align=center;verticalAlign=middle;resizable=0;points=[];autosize=1;strokeColor=none;fillColor=none;" vertex="1" parent="srPSa60DD6o7SeIWjLmN-32">
          <mxGeometry x="115" width="50" height="30" as="geometry" />
        </mxCell>
        <mxCell id="srPSa60DD6o7SeIWjLmN-33" style="edgeStyle=elbowEdgeStyle;rounded=0;orthogonalLoop=1;jettySize=auto;html=1;entryX=0.559;entryY=0.989;entryDx=0;entryDy=0;entryPerimeter=0;elbow=vertical;" edge="1" parent="WIyWlLk6GJQsqaUBKTNV-1" source="srPSa60DD6o7SeIWjLmN-11" target="srPSa60DD6o7SeIWjLmN-29">
          <mxGeometry relative="1" as="geometry">
            <Array as="points">
              <mxPoint x="640" y="380" />
            </Array>
          </mxGeometry>
        </mxCell>
        <mxCell id="srPSa60DD6o7SeIWjLmN-36" style="edgeStyle=orthogonalEdgeStyle;rounded=0;orthogonalLoop=1;jettySize=auto;html=1;entryX=0;entryY=0.5;entryDx=0;entryDy=0;" edge="1" parent="WIyWlLk6GJQsqaUBKTNV-1" source="srPSa60DD6o7SeIWjLmN-34" target="srPSa60DD6o7SeIWjLmN-37">
          <mxGeometry relative="1" as="geometry">
            <mxPoint x="840" y="390" as="targetPoint" />
          </mxGeometry>
        </mxCell>
        <mxCell id="srPSa60DD6o7SeIWjLmN-39" value="ketemu" style="edgeLabel;html=1;align=center;verticalAlign=middle;resizable=0;points=[];" vertex="1" connectable="0" parent="srPSa60DD6o7SeIWjLmN-36">
          <mxGeometry x="-0.0173" y="-1" relative="1" as="geometry">
            <mxPoint as="offset" />
          </mxGeometry>
        </mxCell>
        <mxCell id="srPSa60DD6o7SeIWjLmN-40" style="edgeStyle=orthogonalEdgeStyle;rounded=0;orthogonalLoop=1;jettySize=auto;html=1;entryX=0;entryY=0.75;entryDx=0;entryDy=0;" edge="1" parent="WIyWlLk6GJQsqaUBKTNV-1" source="srPSa60DD6o7SeIWjLmN-34" target="srPSa60DD6o7SeIWjLmN-41">
          <mxGeometry relative="1" as="geometry">
            <mxPoint x="910" y="520" as="targetPoint" />
          </mxGeometry>
        </mxCell>
        <mxCell id="srPSa60DD6o7SeIWjLmN-42" value="tidakketemu" style="edgeLabel;html=1;align=center;verticalAlign=middle;resizable=0;points=[];" vertex="1" connectable="0" parent="srPSa60DD6o7SeIWjLmN-40">
          <mxGeometry x="-0.0799" y="1" relative="1" as="geometry">
            <mxPoint as="offset" />
          </mxGeometry>
        </mxCell>
        <mxCell id="srPSa60DD6o7SeIWjLmN-34" value="cari berdasarkan&lt;div&gt;nama aset&lt;/div&gt;" style="rhombus;whiteSpace=wrap;html=1;shadow=0;fontFamily=Helvetica;fontSize=12;align=center;strokeWidth=1;spacing=6;spacingTop=-4;" vertex="1" parent="WIyWlLk6GJQsqaUBKTNV-1">
          <mxGeometry x="690" y="370" width="180" height="90" as="geometry" />
        </mxCell>
        <mxCell id="srPSa60DD6o7SeIWjLmN-55" style="edgeStyle=orthogonalEdgeStyle;rounded=0;orthogonalLoop=1;jettySize=auto;html=1;" edge="1" parent="WIyWlLk6GJQsqaUBKTNV-1" source="srPSa60DD6o7SeIWjLmN-37" target="srPSa60DD6o7SeIWjLmN-52">
          <mxGeometry relative="1" as="geometry" />
        </mxCell>
        <mxCell id="srPSa60DD6o7SeIWjLmN-67" style="edgeStyle=orthogonalEdgeStyle;rounded=0;orthogonalLoop=1;jettySize=auto;html=1;" edge="1" parent="WIyWlLk6GJQsqaUBKTNV-1" source="srPSa60DD6o7SeIWjLmN-41" target="srPSa60DD6o7SeIWjLmN-66">
          <mxGeometry relative="1" as="geometry" />
        </mxCell>
        <mxCell id="srPSa60DD6o7SeIWjLmN-71" style="edgeStyle=orthogonalEdgeStyle;rounded=0;orthogonalLoop=1;jettySize=auto;html=1;entryX=0.5;entryY=1;entryDx=0;entryDy=0;" edge="1" parent="WIyWlLk6GJQsqaUBKTNV-1" source="srPSa60DD6o7SeIWjLmN-41" target="srPSa60DD6o7SeIWjLmN-44">
          <mxGeometry relative="1" as="geometry" />
        </mxCell>
        <mxCell id="srPSa60DD6o7SeIWjLmN-41" value="Masukan Ulang Nama Aset" style="whiteSpace=wrap;html=1;" vertex="1" parent="WIyWlLk6GJQsqaUBKTNV-1">
          <mxGeometry x="1149" y="410" width="120" height="60" as="geometry" />
        </mxCell>
        <mxCell id="srPSa60DD6o7SeIWjLmN-45" style="edgeStyle=orthogonalEdgeStyle;rounded=0;orthogonalLoop=1;jettySize=auto;html=1;" edge="1" parent="WIyWlLk6GJQsqaUBKTNV-1" source="srPSa60DD6o7SeIWjLmN-44" target="srPSa60DD6o7SeIWjLmN-37">
          <mxGeometry relative="1" as="geometry" />
        </mxCell>
        <mxCell id="srPSa60DD6o7SeIWjLmN-44" value="ketemu&amp;nbsp;" style="rounded=1;whiteSpace=wrap;html=1;" vertex="1" parent="WIyWlLk6GJQsqaUBKTNV-1">
          <mxGeometry x="1241" y="340" width="60" height="30" as="geometry" />
        </mxCell>
        <mxCell id="srPSa60DD6o7SeIWjLmN-46" value="kembali ke&amp;nbsp;&lt;div&gt;dashboard&lt;/div&gt;" style="rounded=1;whiteSpace=wrap;html=1;" vertex="1" parent="WIyWlLk6GJQsqaUBKTNV-1">
          <mxGeometry x="1460" y="190" width="120" height="60" as="geometry" />
        </mxCell>
        <mxCell id="srPSa60DD6o7SeIWjLmN-52" value="&lt;ol&gt;&lt;li&gt;ubah data yang lain&lt;/li&gt;&lt;li&gt;kembali ke dashboard&lt;/li&gt;&lt;/ol&gt;" style="rhombus;whiteSpace=wrap;html=1;align=left;" vertex="1" parent="WIyWlLk6GJQsqaUBKTNV-1">
          <mxGeometry x="1269" y="190" width="150" height="110" as="geometry" />
        </mxCell>
        <mxCell id="srPSa60DD6o7SeIWjLmN-61" style="edgeStyle=orthogonalEdgeStyle;rounded=0;orthogonalLoop=1;jettySize=auto;html=1;entryX=0.464;entryY=0.999;entryDx=0;entryDy=0;entryPerimeter=0;" edge="1" parent="WIyWlLk6GJQsqaUBKTNV-1" source="srPSa60DD6o7SeIWjLmN-52" target="srPSa60DD6o7SeIWjLmN-46">
          <mxGeometry relative="1" as="geometry" />
        </mxCell>
        <mxCell id="srPSa60DD6o7SeIWjLmN-62" value="2" style="edgeLabel;html=1;align=center;verticalAlign=middle;resizable=0;points=[];" vertex="1" connectable="0" parent="srPSa60DD6o7SeIWjLmN-61">
          <mxGeometry x="-0.3407" y="-2" relative="1" as="geometry">
            <mxPoint as="offset" />
          </mxGeometry>
        </mxCell>
        <mxCell id="srPSa60DD6o7SeIWjLmN-63" style="edgeStyle=orthogonalEdgeStyle;rounded=0;orthogonalLoop=1;jettySize=auto;html=1;entryX=0.67;entryY=0.006;entryDx=0;entryDy=0;entryPerimeter=0;" edge="1" parent="WIyWlLk6GJQsqaUBKTNV-1" source="srPSa60DD6o7SeIWjLmN-52" target="srPSa60DD6o7SeIWjLmN-37">
          <mxGeometry relative="1" as="geometry" />
        </mxCell>
        <mxCell id="srPSa60DD6o7SeIWjLmN-64" value="1" style="edgeLabel;html=1;align=center;verticalAlign=middle;resizable=0;points=[];" vertex="1" connectable="0" parent="srPSa60DD6o7SeIWjLmN-63">
          <mxGeometry x="0.1465" y="-2" relative="1" as="geometry">
            <mxPoint as="offset" />
          </mxGeometry>
        </mxCell>
        <mxCell id="srPSa60DD6o7SeIWjLmN-69" style="edgeStyle=orthogonalEdgeStyle;rounded=0;orthogonalLoop=1;jettySize=auto;html=1;" edge="1" parent="WIyWlLk6GJQsqaUBKTNV-1" source="srPSa60DD6o7SeIWjLmN-66" target="srPSa60DD6o7SeIWjLmN-68">
          <mxGeometry relative="1" as="geometry" />
        </mxCell>
        <mxCell id="srPSa60DD6o7SeIWjLmN-66" value="&#xa;&lt;span style=&quot;color: rgb(0, 0, 0); font-family: Helvetica; font-size: 12px; font-style: normal; font-variant-ligatures: normal; font-variant-caps: normal; font-weight: 400; letter-spacing: normal; orphans: 2; text-align: center; text-indent: 0px; text-transform: none; widows: 2; word-spacing: 0px; -webkit-text-stroke-width: 0px; white-space: nowrap; background-color: rgb(236, 236, 236); text-decoration-thickness: initial; text-decoration-style: initial; text-decoration-color: initial; display: inline !important; float: none;&quot;&gt;lebih dari 4 kali&amp;nbsp;&lt;/span&gt;&lt;div style=&quot;forced-color-adjust: none; color: rgb(0, 0, 0); font-family: Helvetica; font-size: 12px; font-style: normal; font-variant-ligatures: normal; font-variant-caps: normal; font-weight: 400; letter-spacing: normal; orphans: 2; text-align: center; text-indent: 0px; text-transform: none; widows: 2; word-spacing: 0px; -webkit-text-stroke-width: 0px; white-space: nowrap; background-color: rgb(236, 236, 236); text-decoration-thickness: initial; text-decoration-style: initial; text-decoration-color: initial;&quot;&gt;tidak ketemu,&amp;nbsp;&lt;/div&gt;&#xa;&#xa;" style="whiteSpace=wrap;html=1;" vertex="1" parent="WIyWlLk6GJQsqaUBKTNV-1">
          <mxGeometry x="1280" y="487.5" width="100" height="47.5" as="geometry" />
        </mxCell>
        <mxCell id="srPSa60DD6o7SeIWjLmN-68" value="Kembali ke Dasboard" style="whiteSpace=wrap;html=1;" vertex="1" parent="WIyWlLk6GJQsqaUBKTNV-1">
          <mxGeometry x="1410" y="380" width="90" height="40" as="geometry" />
        </mxCell>
        <mxCell id="srPSa60DD6o7SeIWjLmN-70" value="" style="group" vertex="1" connectable="0" parent="WIyWlLk6GJQsqaUBKTNV-1">
          <mxGeometry x="1000" y="210" width="180" height="90" as="geometry" />
        </mxCell>
        <mxCell id="srPSa60DD6o7SeIWjLmN-37" value="&lt;ul&gt;&lt;li&gt;Dana Investasi&lt;/li&gt;&lt;li&gt;jenis Aset&lt;/li&gt;&lt;li&gt;Nilai sekarang aset&lt;/li&gt;&lt;/ul&gt;" style="whiteSpace=wrap;html=1;align=left;" vertex="1" parent="srPSa60DD6o7SeIWjLmN-70">
          <mxGeometry y="30" width="180" height="60" as="geometry" />
        </mxCell>
        <mxCell id="srPSa60DD6o7SeIWjLmN-38" value="Ubah Data" style="text;html=1;align=center;verticalAlign=middle;resizable=0;points=[];autosize=1;strokeColor=none;fillColor=none;" vertex="1" parent="srPSa60DD6o7SeIWjLmN-70">
          <mxGeometry x="40" width="80" height="30" as="geometry" />
        </mxCell>
        <mxCell id="srPSa60DD6o7SeIWjLmN-75" style="edgeStyle=orthogonalEdgeStyle;rounded=0;orthogonalLoop=1;jettySize=auto;html=1;" edge="1" parent="WIyWlLk6GJQsqaUBKTNV-1" source="srPSa60DD6o7SeIWjLmN-73" target="srPSa60DD6o7SeIWjLmN-76">
          <mxGeometry relative="1" as="geometry">
            <mxPoint x="930" y="520" as="targetPoint" />
          </mxGeometry>
        </mxCell>
        <mxCell id="srPSa60DD6o7SeIWjLmN-77" value="ditemukan" style="edgeLabel;html=1;align=center;verticalAlign=middle;resizable=0;points=[];" vertex="1" connectable="0" parent="srPSa60DD6o7SeIWjLmN-75">
          <mxGeometry x="0.0494" y="2" relative="1" as="geometry">
            <mxPoint as="offset" />
          </mxGeometry>
        </mxCell>
        <mxCell id="srPSa60DD6o7SeIWjLmN-82" style="edgeStyle=elbowEdgeStyle;rounded=0;orthogonalLoop=1;jettySize=auto;html=1;" edge="1" parent="WIyWlLk6GJQsqaUBKTNV-1" source="srPSa60DD6o7SeIWjLmN-73" target="srPSa60DD6o7SeIWjLmN-84">
          <mxGeometry relative="1" as="geometry">
            <mxPoint x="950" y="660" as="targetPoint" />
          </mxGeometry>
        </mxCell>
        <mxCell id="srPSa60DD6o7SeIWjLmN-83" value="tidak ditemukan" style="edgeLabel;html=1;align=center;verticalAlign=middle;resizable=0;points=[];" vertex="1" connectable="0" parent="srPSa60DD6o7SeIWjLmN-82">
          <mxGeometry x="0.4696" y="2" relative="1" as="geometry">
            <mxPoint as="offset" />
          </mxGeometry>
        </mxCell>
        <mxCell id="srPSa60DD6o7SeIWjLmN-73" value="cari berdasarkan&lt;div&gt;nama aset&lt;/div&gt;" style="rhombus;whiteSpace=wrap;html=1;shadow=0;fontFamily=Helvetica;fontSize=12;align=center;strokeWidth=1;spacing=6;spacingTop=-4;" vertex="1" parent="WIyWlLk6GJQsqaUBKTNV-1">
          <mxGeometry x="690" y="527.5" width="180" height="90" as="geometry" />
        </mxCell>
        <mxCell id="srPSa60DD6o7SeIWjLmN-76" value="Hapus data" style="rounded=1;whiteSpace=wrap;html=1;" vertex="1" parent="WIyWlLk6GJQsqaUBKTNV-1">
          <mxGeometry x="992" y="490" width="70" height="40" as="geometry" />
        </mxCell>
        <mxCell id="srPSa60DD6o7SeIWjLmN-80" value="kembali ke dasboard" style="rounded=1;whiteSpace=wrap;html=1;" vertex="1" parent="WIyWlLk6GJQsqaUBKTNV-1">
          <mxGeometry x="1223" y="595" width="70" height="40" as="geometry" />
        </mxCell>
        <mxCell id="srPSa60DD6o7SeIWjLmN-86" style="edgeStyle=orthogonalEdgeStyle;rounded=0;orthogonalLoop=1;jettySize=auto;html=1;" edge="1" parent="WIyWlLk6GJQsqaUBKTNV-1" source="srPSa60DD6o7SeIWjLmN-84" target="srPSa60DD6o7SeIWjLmN-85">
          <mxGeometry relative="1" as="geometry" />
        </mxCell>
        <mxCell id="srPSa60DD6o7SeIWjLmN-89" style="edgeStyle=orthogonalEdgeStyle;rounded=0;orthogonalLoop=1;jettySize=auto;html=1;" edge="1" parent="WIyWlLk6GJQsqaUBKTNV-1" source="srPSa60DD6o7SeIWjLmN-84" target="srPSa60DD6o7SeIWjLmN-88">
          <mxGeometry relative="1" as="geometry" />
        </mxCell>
        <mxCell id="srPSa60DD6o7SeIWjLmN-84" value="masukan ulang" style="rounded=1;whiteSpace=wrap;html=1;" vertex="1" parent="WIyWlLk6GJQsqaUBKTNV-1">
          <mxGeometry x="992" y="587.5" width="70" height="40" as="geometry" />
        </mxCell>
        <mxCell id="srPSa60DD6o7SeIWjLmN-87" style="edgeStyle=orthogonalEdgeStyle;rounded=0;orthogonalLoop=1;jettySize=auto;html=1;" edge="1" parent="WIyWlLk6GJQsqaUBKTNV-1" source="srPSa60DD6o7SeIWjLmN-85" target="srPSa60DD6o7SeIWjLmN-80">
          <mxGeometry relative="1" as="geometry" />
        </mxCell>
        <mxCell id="srPSa60DD6o7SeIWjLmN-85" value="&amp;gt; 3 kali percobaan" style="rounded=1;whiteSpace=wrap;html=1;" vertex="1" parent="WIyWlLk6GJQsqaUBKTNV-1">
          <mxGeometry x="1112" y="660" width="70" height="40" as="geometry" />
        </mxCell>
        <mxCell id="srPSa60DD6o7SeIWjLmN-90" style="edgeStyle=orthogonalEdgeStyle;rounded=0;orthogonalLoop=1;jettySize=auto;html=1;entryX=0.25;entryY=1;entryDx=0;entryDy=0;" edge="1" parent="WIyWlLk6GJQsqaUBKTNV-1" source="srPSa60DD6o7SeIWjLmN-88" target="srPSa60DD6o7SeIWjLmN-76">
          <mxGeometry relative="1" as="geometry" />
        </mxCell>
        <mxCell id="srPSa60DD6o7SeIWjLmN-92" value="ditemukan" style="edgeLabel;html=1;align=center;verticalAlign=middle;resizable=0;points=[];" vertex="1" connectable="0" parent="srPSa60DD6o7SeIWjLmN-90">
          <mxGeometry x="-0.2587" y="-1" relative="1" as="geometry">
            <mxPoint as="offset" />
          </mxGeometry>
        </mxCell>
        <mxCell id="srPSa60DD6o7SeIWjLmN-88" value="&amp;lt; 3 kali percobaan" style="rounded=1;whiteSpace=wrap;html=1;" vertex="1" parent="WIyWlLk6GJQsqaUBKTNV-1">
          <mxGeometry x="1112" y="540" width="70" height="40" as="geometry" />
        </mxCell>
        <mxCell id="srPSa60DD6o7SeIWjLmN-97" style="edgeStyle=orthogonalEdgeStyle;rounded=0;orthogonalLoop=1;jettySize=auto;html=1;entryX=0;entryY=0.5;entryDx=0;entryDy=0;" edge="1" parent="WIyWlLk6GJQsqaUBKTNV-1" source="srPSa60DD6o7SeIWjLmN-93" target="srPSa60DD6o7SeIWjLmN-95">
          <mxGeometry relative="1" as="geometry" />
        </mxCell>
        <mxCell id="srPSa60DD6o7SeIWjLmN-98" style="edgeStyle=orthogonalEdgeStyle;rounded=0;orthogonalLoop=1;jettySize=auto;html=1;entryX=0;entryY=0.5;entryDx=0;entryDy=0;" edge="1" parent="WIyWlLk6GJQsqaUBKTNV-1" source="srPSa60DD6o7SeIWjLmN-93" target="srPSa60DD6o7SeIWjLmN-96">
          <mxGeometry relative="1" as="geometry" />
        </mxCell>
        <mxCell id="srPSa60DD6o7SeIWjLmN-93" value="cari berdasarkan" style="rhombus;whiteSpace=wrap;html=1;shadow=0;fontFamily=Helvetica;fontSize=12;align=center;strokeWidth=1;spacing=6;spacingTop=-4;" vertex="1" parent="WIyWlLk6GJQsqaUBKTNV-1">
          <mxGeometry x="660" y="655" width="100" height="55" as="geometry" />
        </mxCell>
        <mxCell id="srPSa60DD6o7SeIWjLmN-107" style="edgeStyle=orthogonalEdgeStyle;rounded=0;orthogonalLoop=1;jettySize=auto;html=1;entryX=0;entryY=0.75;entryDx=0;entryDy=0;" edge="1" parent="WIyWlLk6GJQsqaUBKTNV-1" source="srPSa60DD6o7SeIWjLmN-95" target="srPSa60DD6o7SeIWjLmN-105">
          <mxGeometry relative="1" as="geometry" />
        </mxCell>
        <mxCell id="srPSa60DD6o7SeIWjLmN-111" style="edgeStyle=orthogonalEdgeStyle;rounded=0;orthogonalLoop=1;jettySize=auto;html=1;entryX=0.75;entryY=1;entryDx=0;entryDy=0;" edge="1" parent="WIyWlLk6GJQsqaUBKTNV-1" source="srPSa60DD6o7SeIWjLmN-95" target="srPSa60DD6o7SeIWjLmN-106">
          <mxGeometry relative="1" as="geometry" />
        </mxCell>
        <mxCell id="srPSa60DD6o7SeIWjLmN-95" value="nama atau jenis aset" style="rounded=1;whiteSpace=wrap;html=1;" vertex="1" parent="WIyWlLk6GJQsqaUBKTNV-1">
          <mxGeometry x="850" y="700" width="100" height="50" as="geometry" />
        </mxCell>
        <mxCell id="srPSa60DD6o7SeIWjLmN-108" style="edgeStyle=orthogonalEdgeStyle;rounded=0;orthogonalLoop=1;jettySize=auto;html=1;entryX=0;entryY=0.5;entryDx=0;entryDy=0;" edge="1" parent="WIyWlLk6GJQsqaUBKTNV-1" source="srPSa60DD6o7SeIWjLmN-96" target="srPSa60DD6o7SeIWjLmN-105">
          <mxGeometry relative="1" as="geometry" />
        </mxCell>
        <mxCell id="srPSa60DD6o7SeIWjLmN-109" style="edgeStyle=orthogonalEdgeStyle;rounded=0;orthogonalLoop=1;jettySize=auto;html=1;entryX=0.25;entryY=1;entryDx=0;entryDy=0;" edge="1" parent="WIyWlLk6GJQsqaUBKTNV-1" source="srPSa60DD6o7SeIWjLmN-96" target="srPSa60DD6o7SeIWjLmN-106">
          <mxGeometry relative="1" as="geometry" />
        </mxCell>
        <mxCell id="srPSa60DD6o7SeIWjLmN-96" value="jumlah dana(Nilai investasi)" style="rounded=1;whiteSpace=wrap;html=1;" vertex="1" parent="WIyWlLk6GJQsqaUBKTNV-1">
          <mxGeometry x="850" y="800" width="100" height="50" as="geometry" />
        </mxCell>
        <mxCell id="srPSa60DD6o7SeIWjLmN-114" style="edgeStyle=orthogonalEdgeStyle;rounded=0;orthogonalLoop=1;jettySize=auto;html=1;" edge="1" parent="WIyWlLk6GJQsqaUBKTNV-1" source="srPSa60DD6o7SeIWjLmN-105" target="srPSa60DD6o7SeIWjLmN-112">
          <mxGeometry relative="1" as="geometry" />
        </mxCell>
        <mxCell id="srPSa60DD6o7SeIWjLmN-105" value="ditemukan" style="whiteSpace=wrap;html=1;" vertex="1" parent="WIyWlLk6GJQsqaUBKTNV-1">
          <mxGeometry x="1069" y="745" width="80" height="45" as="geometry" />
        </mxCell>
        <mxCell id="srPSa60DD6o7SeIWjLmN-116" style="edgeStyle=orthogonalEdgeStyle;rounded=0;orthogonalLoop=1;jettySize=auto;html=1;" edge="1" parent="WIyWlLk6GJQsqaUBKTNV-1" source="srPSa60DD6o7SeIWjLmN-106" target="srPSa60DD6o7SeIWjLmN-115">
          <mxGeometry relative="1" as="geometry">
            <mxPoint x="1240" y="900" as="targetPoint" />
          </mxGeometry>
        </mxCell>
        <mxCell id="srPSa60DD6o7SeIWjLmN-106" value="tidak&amp;nbsp;" style="whiteSpace=wrap;html=1;" vertex="1" parent="WIyWlLk6GJQsqaUBKTNV-1">
          <mxGeometry x="1069" y="830" width="80" height="45" as="geometry" />
        </mxCell>
        <mxCell id="srPSa60DD6o7SeIWjLmN-112" value="Nama Aset&lt;div&gt;Jenis Aset&lt;br&gt;&lt;div&gt;Jumlah Dana&lt;/div&gt;&lt;/div&gt;&lt;div&gt;Nilai awal aset&lt;/div&gt;&lt;div&gt;nilai sekarang aset&lt;/div&gt;&lt;div&gt;keuntungan&lt;/div&gt;" style="whiteSpace=wrap;html=1;" vertex="1" parent="WIyWlLk6GJQsqaUBKTNV-1">
          <mxGeometry x="1243" y="722.5" width="137" height="87.5" as="geometry" />
        </mxCell>
        <mxCell id="srPSa60DD6o7SeIWjLmN-113" value="Tampilkan Data Investasi" style="text;html=1;align=center;verticalAlign=middle;resizable=0;points=[];autosize=1;strokeColor=none;fillColor=none;" vertex="1" parent="WIyWlLk6GJQsqaUBKTNV-1">
          <mxGeometry x="1223" y="700" width="160" height="30" as="geometry" />
        </mxCell>
        <mxCell id="srPSa60DD6o7SeIWjLmN-115" value="data tidak ditemukan periksa lagi nama jenis, atau jumlah dana aset anda" style="whiteSpace=wrap;html=1;" vertex="1" parent="WIyWlLk6GJQsqaUBKTNV-1">
          <mxGeometry x="1243" y="860" width="120" height="60" as="geometry" />
        </mxCell>
        <mxCell id="srPSa60DD6o7SeIWjLmN-125" style="edgeStyle=orthogonalEdgeStyle;rounded=0;orthogonalLoop=1;jettySize=auto;html=1;" edge="1" parent="WIyWlLk6GJQsqaUBKTNV-1" source="srPSa60DD6o7SeIWjLmN-117" target="srPSa60DD6o7SeIWjLmN-120">
          <mxGeometry relative="1" as="geometry" />
        </mxCell>
        <mxCell id="srPSa60DD6o7SeIWjLmN-126" style="edgeStyle=orthogonalEdgeStyle;rounded=0;orthogonalLoop=1;jettySize=auto;html=1;entryX=0;entryY=0.5;entryDx=0;entryDy=0;" edge="1" parent="WIyWlLk6GJQsqaUBKTNV-1" source="srPSa60DD6o7SeIWjLmN-117" target="srPSa60DD6o7SeIWjLmN-121">
          <mxGeometry relative="1" as="geometry" />
        </mxCell>
        <mxCell id="srPSa60DD6o7SeIWjLmN-117" value="urutkan berdasarkan" style="rhombus;whiteSpace=wrap;html=1;shadow=0;fontFamily=Helvetica;fontSize=12;align=center;strokeWidth=1;spacing=6;spacingTop=-4;" vertex="1" parent="WIyWlLk6GJQsqaUBKTNV-1">
          <mxGeometry x="660" y="880" width="100" height="55" as="geometry" />
        </mxCell>
        <mxCell id="srPSa60DD6o7SeIWjLmN-133" style="edgeStyle=orthogonalEdgeStyle;rounded=0;orthogonalLoop=1;jettySize=auto;html=1;" edge="1" parent="WIyWlLk6GJQsqaUBKTNV-1" source="srPSa60DD6o7SeIWjLmN-120" target="srPSa60DD6o7SeIWjLmN-132">
          <mxGeometry relative="1" as="geometry" />
        </mxCell>
        <mxCell id="srPSa60DD6o7SeIWjLmN-120" value="nama aset (inserting sorti)" style="rounded=1;whiteSpace=wrap;html=1;" vertex="1" parent="WIyWlLk6GJQsqaUBKTNV-1">
          <mxGeometry x="810" y="890" width="120" height="60" as="geometry" />
        </mxCell>
        <mxCell id="srPSa60DD6o7SeIWjLmN-134" style="edgeStyle=orthogonalEdgeStyle;rounded=0;orthogonalLoop=1;jettySize=auto;html=1;" edge="1" parent="WIyWlLk6GJQsqaUBKTNV-1" source="srPSa60DD6o7SeIWjLmN-121" target="srPSa60DD6o7SeIWjLmN-132">
          <mxGeometry relative="1" as="geometry" />
        </mxCell>
        <mxCell id="srPSa60DD6o7SeIWjLmN-121" value="keuntungan % (selection sorti)" style="rounded=1;whiteSpace=wrap;html=1;" vertex="1" parent="WIyWlLk6GJQsqaUBKTNV-1">
          <mxGeometry x="810" y="970" width="120" height="60" as="geometry" />
        </mxCell>
        <mxCell id="srPSa60DD6o7SeIWjLmN-135" style="edgeStyle=orthogonalEdgeStyle;rounded=0;orthogonalLoop=1;jettySize=auto;html=1;entryX=0;entryY=0.5;entryDx=0;entryDy=0;" edge="1" parent="WIyWlLk6GJQsqaUBKTNV-1" source="srPSa60DD6o7SeIWjLmN-122" target="srPSa60DD6o7SeIWjLmN-132">
          <mxGeometry relative="1" as="geometry" />
        </mxCell>
        <mxCell id="srPSa60DD6o7SeIWjLmN-122" value="jenis aset (inserting sorti)" style="rounded=1;whiteSpace=wrap;html=1;" vertex="1" parent="WIyWlLk6GJQsqaUBKTNV-1">
          <mxGeometry x="810" y="1050" width="120" height="60" as="geometry" />
        </mxCell>
        <mxCell id="srPSa60DD6o7SeIWjLmN-123" value="jumlah dana (selection sorti)" style="rounded=1;whiteSpace=wrap;html=1;" vertex="1" parent="WIyWlLk6GJQsqaUBKTNV-1">
          <mxGeometry x="810" y="1130" width="120" height="60" as="geometry" />
        </mxCell>
        <mxCell id="srPSa60DD6o7SeIWjLmN-137" style="edgeStyle=orthogonalEdgeStyle;rounded=0;orthogonalLoop=1;jettySize=auto;html=1;" edge="1" parent="WIyWlLk6GJQsqaUBKTNV-1" source="srPSa60DD6o7SeIWjLmN-124" target="srPSa60DD6o7SeIWjLmN-132">
          <mxGeometry relative="1" as="geometry" />
        </mxCell>
        <mxCell id="srPSa60DD6o7SeIWjLmN-124" value="total keuntungan nominal(selection sort)&amp;nbsp;" style="rounded=1;whiteSpace=wrap;html=1;" vertex="1" parent="WIyWlLk6GJQsqaUBKTNV-1">
          <mxGeometry x="810" y="1210" width="120" height="60" as="geometry" />
        </mxCell>
        <mxCell id="srPSa60DD6o7SeIWjLmN-128" style="edgeStyle=orthogonalEdgeStyle;rounded=0;orthogonalLoop=1;jettySize=auto;html=1;entryX=-0.005;entryY=0.653;entryDx=0;entryDy=0;entryPerimeter=0;" edge="1" parent="WIyWlLk6GJQsqaUBKTNV-1" source="srPSa60DD6o7SeIWjLmN-117" target="srPSa60DD6o7SeIWjLmN-122">
          <mxGeometry relative="1" as="geometry" />
        </mxCell>
        <mxCell id="srPSa60DD6o7SeIWjLmN-129" style="edgeStyle=orthogonalEdgeStyle;rounded=0;orthogonalLoop=1;jettySize=auto;html=1;entryX=0.002;entryY=0.893;entryDx=0;entryDy=0;entryPerimeter=0;" edge="1" parent="WIyWlLk6GJQsqaUBKTNV-1" source="srPSa60DD6o7SeIWjLmN-117" target="srPSa60DD6o7SeIWjLmN-123">
          <mxGeometry relative="1" as="geometry" />
        </mxCell>
        <mxCell id="srPSa60DD6o7SeIWjLmN-130" style="edgeStyle=orthogonalEdgeStyle;rounded=0;orthogonalLoop=1;jettySize=auto;html=1;entryX=-0.005;entryY=0.6;entryDx=0;entryDy=0;entryPerimeter=0;" edge="1" parent="WIyWlLk6GJQsqaUBKTNV-1" source="srPSa60DD6o7SeIWjLmN-117" target="srPSa60DD6o7SeIWjLmN-124">
          <mxGeometry relative="1" as="geometry" />
        </mxCell>
        <mxCell id="srPSa60DD6o7SeIWjLmN-132" value="1 atau 2" style="rhombus;whiteSpace=wrap;html=1;" vertex="1" parent="WIyWlLk6GJQsqaUBKTNV-1">
          <mxGeometry x="1010" y="1040" width="80" height="80" as="geometry" />
        </mxCell>
        <mxCell id="srPSa60DD6o7SeIWjLmN-136" style="edgeStyle=orthogonalEdgeStyle;rounded=0;orthogonalLoop=1;jettySize=auto;html=1;entryX=0.493;entryY=0.925;entryDx=0;entryDy=0;entryPerimeter=0;" edge="1" parent="WIyWlLk6GJQsqaUBKTNV-1" source="srPSa60DD6o7SeIWjLmN-123" target="srPSa60DD6o7SeIWjLmN-132">
          <mxGeometry relative="1" as="geometry" />
        </mxCell>
        <mxCell id="srPSa60DD6o7SeIWjLmN-139" value="1. kembai ke dashboard" style="rounded=1;whiteSpace=wrap;html=1;" vertex="1" parent="WIyWlLk6GJQsqaUBKTNV-1">
          <mxGeometry x="1120" y="980" width="120" height="60" as="geometry" />
        </mxCell>
        <mxCell id="srPSa60DD6o7SeIWjLmN-140" value="2.kembali mencari berdasarkan yang lain" style="rounded=1;whiteSpace=wrap;html=1;" vertex="1" parent="WIyWlLk6GJQsqaUBKTNV-1">
          <mxGeometry x="1123" y="1109" width="120" height="60" as="geometry" />
        </mxCell>
        <mxCell id="srPSa60DD6o7SeIWjLmN-142" style="edgeStyle=orthogonalEdgeStyle;rounded=0;orthogonalLoop=1;jettySize=auto;html=1;entryX=0.625;entryY=0.993;entryDx=0;entryDy=0;entryPerimeter=0;" edge="1" parent="WIyWlLk6GJQsqaUBKTNV-1" source="srPSa60DD6o7SeIWjLmN-132" target="srPSa60DD6o7SeIWjLmN-139">
          <mxGeometry relative="1" as="geometry" />
        </mxCell>
        <mxCell id="srPSa60DD6o7SeIWjLmN-143" style="edgeStyle=orthogonalEdgeStyle;rounded=0;orthogonalLoop=1;jettySize=auto;html=1;entryX=0.6;entryY=0.003;entryDx=0;entryDy=0;entryPerimeter=0;" edge="1" parent="WIyWlLk6GJQsqaUBKTNV-1" source="srPSa60DD6o7SeIWjLmN-132" target="srPSa60DD6o7SeIWjLmN-140">
          <mxGeometry relative="1" as="geometry" />
        </mxCell>
        <mxCell id="srPSa60DD6o7SeIWjLmN-150" value="+----+----------------------+-------------+--------------+--------------+----------------+------------+-------------+&#xa;| No | Nama Aset            | Jenis Aset  | Jumlah Dana  | Nilai Awal   | Nilai Sekarang | Untung (Rp)| Untung (%)  |&#xa;+----+----------------------+-------------+--------------+--------------+----------------+------------+-------------+&#xa;| 1  | Saham BCA            | Saham       | 5.000.000    | 6.000        | 7.500          | 1.250.000  | 25.00%      |&#xa;| 2  | Obligasi Rakyat      | Obligasi    | 2.000.000    | 1.000        | 1.050          | 100.000    | 5.00%       |&#xa;| 3  | Reksa Dana ABC       | Reksadana   | 3.000.000    | 1.500        | 1.650          | 300.000    | 10.00%      |&#xa;+----+----------------------+-------------+--------------+--------------+----------------+------------+-------------+" style="text;whiteSpace=wrap;" vertex="1" parent="WIyWlLk6GJQsqaUBKTNV-1">
          <mxGeometry x="-220" y="662.5" width="560" height="180" as="geometry" />
        </mxCell>
        <mxCell id="srPSa60DD6o7SeIWjLmN-155" value="Login/Regis" style="whiteSpace=wrap;html=1;" vertex="1" parent="WIyWlLk6GJQsqaUBKTNV-1">
          <mxGeometry x="210" y="920" width="120" height="60" as="geometry" />
        </mxCell>
        <mxCell id="srPSa60DD6o7SeIWjLmN-159" style="edgeStyle=orthogonalEdgeStyle;rounded=0;orthogonalLoop=1;jettySize=auto;html=1;" edge="1" parent="WIyWlLk6GJQsqaUBKTNV-1" source="srPSa60DD6o7SeIWjLmN-156" target="srPSa60DD6o7SeIWjLmN-158">
          <mxGeometry relative="1" as="geometry" />
        </mxCell>
        <mxCell id="srPSa60DD6o7SeIWjLmN-156" value="8.keluar program" style="rounded=1;whiteSpace=wrap;html=1;" vertex="1" parent="WIyWlLk6GJQsqaUBKTNV-1">
          <mxGeometry x="450" y="867.5" width="100" height="45" as="geometry" />
        </mxCell>
        <mxCell id="srPSa60DD6o7SeIWjLmN-158" value="========================================&#xa;🙏 Terima kasih telah menggunakan&#xa;📊 Aplikasi Manajemen Investasi Sederhana&#xa;&#xa;&#xa;Semoga portofolio investasimu terus berkembang!&#xa;Sampai jumpa 👋&#xa;========================================" style="text;whiteSpace=wrap;" vertex="1" parent="WIyWlLk6GJQsqaUBKTNV-1">
          <mxGeometry x="370" y="1000" width="310" height="140" as="geometry" />
        </mxCell>
      </root>
    </mxGraphModel>
  </diagram>
</mxfile>
